<?xml version="1.0" standalone="no"?>
<!DOCTYPE svg PUBLIC "-//W3C//DTD SVG 20010904//EN"
 "http://www.w3.org/TR/2001/REC-SVG-20010904/DTD/svg10.dtd">
<svg version="1.0" xmlns="http://www.w3.org/2000/svg"
 width="527.000000pt" height="527.000000pt" viewBox="0 0 527.000000 527.000000"
 preserveAspectRatio="xMidYMid meet">
<metadata>
Created by potrace 1.14, written by Peter Selinger 2001-2017
</metadata>
<g transform="translate(0.000000,527.000000) scale(0.100000,-0.100000)"
fill="#000000" stroke="none">
<path d="M3643 4683 c-10 -3 -13 -67 -13 -271 0 -304 -8 -357 -66 -479 -35
-71 -58 -98 -274 -317 -129 -131 -226 -236 -216 -232 56 20 122 29 221 30
l110 1 120 120 c126 126 184 173 263 207 104 46 136 50 437 57 274 6 290 7
293 25 3 14 -109 132 -419 442 -233 233 -428 424 -434 423 -5 0 -16 -3 -22 -6z"/>
<path d="M3150 3344 c-36 -7 -99 -30 -140 -50 -73 -35 -109 -70 -1110 -1069
l-1035 -1032 -100 -43 c-114 -48 -145 -66 -145 -82 0 -19 263 -278 282 -278
17 0 61 83 103 195 17 45 128 160 1040 1070 752 750 1034 1026 1068 1043 185
92 402 19 495 -168 24 -49 27 -66 27 -155 0 -171 35 -128 -664 -827 -696 -697
-654 -663 -821 -663 -87 0 -101 3 -162 33 -127 62 -199 176 -202 319 0 40 -3
73 -6 73 -3 0 -50 -45 -104 -100 l-99 -101 13 -42 c26 -87 73 -162 149 -238
116 -116 245 -169 411 -169 100 0 173 17 267 62 63 30 113 77 709 672 673 673
662 661 709 796 24 68 34 170 25 254 -39 343 -367 574 -710 500z"/>
<path d="M2404 3049 c-87 -85 -106 -118 -84 -144 15 -18 51 -20 68 -3 9 9 19
5 41 -17 l30 -28 62 62 62 62 -28 29 c-23 24 -26 32 -16 44 7 8 11 27 9 43 -2
22 -9 29 -31 31 -23 3 -42 -10 -113 -79z"/>
<path d="M2220 2853 c-8 -3 -52 -42 -97 -86 -64 -63 -83 -88 -83 -109 0 -38
33 -55 64 -34 22 14 25 13 51 -14 l28 -29 59 59 c32 32 58 63 58 68 0 5 -11
19 -25 32 -23 22 -24 25 -9 41 9 10 14 25 12 35 -4 21 -38 43 -58 37z"/>
<path d="M2755 2687 c-30 -30 -55 -59 -55 -64 0 -4 97 -105 215 -223 l215
-215 60 60 c33 33 60 62 60 66 0 8 -417 423 -430 427 -5 2 -34 -21 -65 -51z"/>
<path d="M1847 2491 c-85 -86 -100 -114 -75 -139 15 -15 51 -15 66 0 9 9 18 6
41 -16 l29 -28 63 61 63 61 -29 30 c-22 23 -26 33 -17 42 15 15 15 51 0 66
-27 27 -55 11 -141 -77z"/>
<path d="M2479 2411 l-64 -60 215 -216 c118 -118 220 -215 225 -215 6 0 36 26
68 58 l57 57 -218 218 -219 219 -64 -61z"/>
<path d="M2204 2136 c-30 -30 -54 -58 -54 -63 0 -4 97 -105 215 -223 l215
-215 62 63 63 62 -215 215 c-118 118 -219 215 -223 215 -5 0 -33 -24 -63 -54z"/>
<path d="M3427 2012 c-31 -32 -57 -60 -57 -64 0 -4 15 -11 34 -18 76 -25 143
51 106 121 -6 10 -14 19 -18 19 -4 0 -33 -26 -65 -58z"/>
<path d="M3157 1742 c-60 -60 -67 -76 -41 -86 63 -24 124 16 124 82 0 68 -19
69 -83 4z"/>
<path d="M2875 1460 c-64 -65 -65 -76 -4 -86 44 -7 86 24 95 70 6 32 -8 76
-24 76 -4 0 -34 -27 -67 -60z"/>
</g>
</svg>
